<svg xmlns="http://www.w3.org/2000/svg" xmlns:xlink="http://www.w3.org/1999/xlink" width="1080" zoomAndPan="magnify" viewBox="0 0 810 809.999993" height="1080" preserveAspectRatio="xMidYMid meet" version="1.0"><defs><clipPath id="fd158be398"><path d="M 181 128 L 649 128 L 649 797.910156 L 181 797.910156 Z M 181 128 " clip-rule="nonzero"/></clipPath><clipPath id="1513415011"><path d="M 280.914062 260.109375 L 573.414062 260.109375 L 573.414062 463.359375 L 280.914062 463.359375 Z M 280.914062 260.109375 " clip-rule="nonzero"/></clipPath></defs><g clip-path="url(#fd158be398)"><path fill="#000000" d="M 411.207031 128.339844 C 288.808594 130.324219 185.792969 231.488281 181.71875 353.808594 C 179.523438 418.675781 203.503906 479.78125 249.160156 525.84375 C 255.429688 532.164062 261.382812 537.960938 267.078125 543.445312 C 297.0625 572.433594 315.136719 589.929688 320.414062 632.234375 L 321.667969 642.261719 L 321.667969 704.257812 C 321.667969 755.753906 363.5625 797.640625 415.074219 797.640625 C 466.582031 797.640625 508.476562 755.753906 508.476562 704.257812 L 508.476562 642.261719 L 508.789062 639.859375 C 514.589844 593.273438 534.386719 573.269531 567.089844 540.105469 C 572.523438 534.621094 578.164062 528.875 584.066406 522.660156 C 625.703125 479.101562 648.636719 421.964844 648.636719 361.796875 C 648.636719 298.707031 623.875 239.582031 578.894531 195.347656 C 533.917969 151.109375 474.886719 127.398438 411.207031 128.339844 Z M 477.394531 688.746094 L 352.855469 688.746094 L 352.855469 656.9375 L 477.394531 656.9375 Z M 415.125 766.566406 C 386.183594 766.566406 361.734375 746.71875 354.839844 719.871094 L 475.460938 719.871094 C 468.515625 746.664062 444.066406 766.566406 415.125 766.566406 Z M 561.605469 501.195312 C 555.804688 507.253906 550.269531 512.894531 544.941406 518.273438 C 513.542969 550.078125 488.363281 575.617188 479.484375 625.757812 L 350.976562 625.757812 C 343.871094 574.367188 319.472656 550.8125 288.703125 521.039062 C 283.167969 515.714844 277.367188 510.074219 271.257812 503.910156 C 231.660156 464.007812 210.921875 411.046875 212.800781 354.800781 C 216.351562 248.828125 305.628906 161.136719 411.730469 159.414062 C 466.371094 158.734375 518.039062 179.15625 557.058594 217.492188 C 596.03125 255.828125 617.5 307.0625 617.5 361.746094 C 617.554688 413.972656 597.703125 463.484375 561.605469 501.195312 Z M 561.605469 501.195312 " fill-opacity="1" fill-rule="nonzero"/></g><path fill="#000000" d="M 293.457031 93.34375 C 295.914062 99.351562 301.710938 102.957031 307.824219 102.957031 C 309.808594 102.957031 311.847656 102.589844 313.78125 101.753906 C 321.71875 98.464844 325.480469 89.375 322.191406 81.4375 L 298.421875 23.882812 C 295.128906 15.945312 285.988281 12.234375 278.101562 15.472656 C 270.160156 18.765625 266.398438 27.851562 269.691406 35.789062 Z M 293.457031 93.34375 " fill-opacity="1" fill-rule="nonzero"/><path fill="#000000" d="M 516.417969 101.753906 C 518.351562 102.539062 520.386719 102.957031 522.375 102.957031 C 528.484375 102.957031 534.285156 99.351562 536.738281 93.34375 L 560.558594 35.789062 C 563.851562 27.851562 560.089844 18.710938 552.148438 15.472656 C 544.210938 12.183594 535.066406 15.945312 531.828125 23.882812 L 508.007812 81.4375 C 504.714844 89.375 508.476562 98.464844 516.417969 101.753906 Z M 516.417969 101.753906 " fill-opacity="1" fill-rule="nonzero"/><path fill="#000000" d="M 674.078125 254.574219 C 676.0625 254.574219 678.097656 254.207031 680.03125 253.371094 L 737.546875 229.554688 C 745.488281 226.265625 749.25 217.125 745.957031 209.238281 C 742.667969 201.351562 733.527344 197.539062 725.636719 200.832031 L 668.121094 224.648438 C 660.179688 227.9375 656.421875 237.078125 659.710938 244.964844 C 662.167969 250.96875 667.964844 254.574219 674.078125 254.574219 Z M 674.078125 254.574219 " fill-opacity="1" fill-rule="nonzero"/><path fill="#000000" d="M 737.546875 462.910156 L 680.03125 439.09375 C 672.144531 435.804688 663.003906 439.566406 659.710938 447.503906 C 656.421875 455.441406 660.179688 464.582031 668.121094 467.820312 L 725.636719 491.636719 C 727.570312 492.417969 729.609375 492.835938 731.59375 492.835938 C 737.703125 492.835938 743.503906 489.234375 745.957031 483.226562 C 749.25 475.339844 745.488281 466.203125 737.546875 462.910156 Z M 737.546875 462.910156 " fill-opacity="1" fill-rule="nonzero"/><path fill="#000000" d="M 150.21875 439.09375 L 92.703125 462.910156 C 84.761719 466.203125 81 475.339844 84.292969 483.226562 C 86.746094 489.234375 92.597656 492.835938 98.65625 492.835938 C 100.640625 492.835938 102.679688 492.472656 104.613281 491.636719 L 162.128906 467.820312 C 170.070312 464.53125 173.828125 455.390625 170.539062 447.503906 C 167.300781 439.566406 158.15625 435.804688 150.21875 439.09375 Z M 150.21875 439.09375 " fill-opacity="1" fill-rule="nonzero"/><path fill="#000000" d="M 162.128906 224.648438 L 104.613281 200.832031 C 96.671875 197.539062 87.53125 201.300781 84.292969 209.238281 C 81 217.179688 84.761719 226.316406 92.703125 229.554688 L 150.21875 253.371094 C 152.152344 254.15625 154.1875 254.574219 156.171875 254.574219 C 162.285156 254.574219 168.082031 250.96875 170.539062 244.964844 C 173.882812 237.023438 170.070312 227.9375 162.128906 224.648438 Z M 162.128906 224.648438 " fill-opacity="1" fill-rule="nonzero"/><path fill="#000000" d="M 539.101562 299.820312 C 536.703125 284.421875 523.503906 273.421875 508.105469 273.421875 L 330.726562 273.421875 C 315.328125 273.421875 302.128906 284.621094 299.726562 299.820312 C 297.527344 314.019531 295.328125 333.816406 295.328125 358.011719 C 295.527344 382.210938 297.527344 402.007812 299.726562 416.207031 C 302.128906 431.40625 315.328125 442.605469 330.726562 442.605469 L 507.90625 442.605469 C 523.304688 442.605469 536.703125 431.40625 538.902344 416.207031 C 541.101562 401.808594 543.304688 382.210938 543.304688 358.011719 C 543.304688 333.816406 541.304688 314.019531 539.101562 299.820312 Z M 393.117188 391.808594 L 393.117188 324.417969 L 455.910156 358.214844 Z M 393.117188 391.808594 " fill-opacity="1" fill-rule="nonzero"/><g clip-path="url(#1513415011)"><path fill="#000000" d="M 419.316406 595.386719 C 288.53125 595.386719 181.941406 489 181.941406 358.011719 C 181.941406 227.226562 288.53125 120.636719 419.316406 120.636719 C 550.101562 120.636719 656.691406 227.226562 656.691406 358.011719 C 656.691406 489 550.300781 595.386719 419.316406 595.386719 Z M 419.316406 133.636719 C 295.527344 133.636719 194.941406 234.226562 194.941406 358.011719 C 194.941406 481.800781 295.527344 582.390625 419.316406 582.390625 C 543.101562 582.390625 643.691406 481.800781 643.691406 358.011719 C 643.691406 234.226562 543.101562 133.636719 419.316406 133.636719 Z M 419.316406 133.636719 " fill-opacity="1" fill-rule="nonzero"/></g></svg>